<svg version="1.2" xmlns="http://www.w3.org/2000/svg" viewBox="0 0 1194 764" width="1194" height="764"><defs><clipPath clipPathUnits="userSpaceOnUse" id="cp1"><path d="m1193.26 0.31v763.38h-1192.52v-763.38z"/></clipPath><linearGradient id="P" gradientUnits="userSpaceOnUse"/><linearGradient id="g1" x2="1" href="#P" gradientTransform="matrix(0,-763.38,1192.516,0,352.664,763.69)"><stop offset=".22" stop-color="#f6deea"/><stop offset=".61" stop-color="#f6a9b1"/><stop offset=".87" stop-color="#c893d5"/><stop offset="1" stop-color="#7b82c8"/></linearGradient><linearGradient id="g2" x2="1" href="#P" gradientTransform="matrix(598.254,-617.399,304.729,295.279,385.914,410.106)"><stop offset=".18" stop-color="#f6ebe3" stop-opacity=".3"/><stop offset="1" stop-color="#f6abb3" stop-opacity=".5"/></linearGradient><linearGradient id="g3" x2="1" href="#P" gradientTransform="matrix(290.559,290.559,-88.595,88.595,83.074,26.279)"><stop offset=".22" stop-color="#f6deea" stop-opacity=".3"/><stop offset="1" stop-color="#f6d9d6" stop-opacity=".2"/></linearGradient><linearGradient id="g4" x2="1" href="#P" gradientTransform="matrix(276.951,276.951,-137.537,137.537,53.94,203.426)"><stop offset=".22" stop-color="#f6deea" stop-opacity=".3"/><stop offset="1" stop-color="#f6d9d6" stop-opacity=".5"/></linearGradient><linearGradient id="g5" x2="1" href="#P" gradientTransform="matrix(305.356,-305.376,128.844,128.835,433.823,467.795)"><stop stop-color="#f6d1d4" stop-opacity=".3"/><stop offset="1" stop-color="#f6b6c8" stop-opacity=".5"/></linearGradient><linearGradient id="g6" x2="1" href="#P" gradientTransform="matrix(-102.565,-54.387,49.303,-92.977,502.354,409.656)"><stop offset=".19" stop-color="#f6deea" stop-opacity=".2"/><stop offset="1" stop-color="#f6e0d8" stop-opacity=".5"/></linearGradient><radialGradient id="g7" cx="0" cy="0" r="1" href="#P" gradientTransform="matrix(3.39,0,0,3.39,251.687,44.935)"><stop stop-color="#fff" stop-opacity="1"/><stop offset=".88" stop-color="#fff" stop-opacity="0"/></radialGradient><radialGradient id="g8" cx="0" cy="0" r="1" href="#P" gradientTransform="matrix(3.39,0,0,3.39,279.13,30.588)"><stop stop-color="#fff" stop-opacity="1"/><stop offset=".88" stop-color="#fff" stop-opacity="0"/></radialGradient><radialGradient id="g9" cx="0" cy="0" r="1" href="#P" gradientTransform="matrix(3.39,0,0,3.39,297.99,140.488)"><stop stop-color="#fff" stop-opacity="1"/><stop offset=".88" stop-color="#fff" stop-opacity="0"/></radialGradient><radialGradient id="g10" cx="0" cy="0" r="1" href="#P" gradientTransform="matrix(3.39,0,0,3.39,251.415,175.306)"><stop stop-color="#fff" stop-opacity="1"/><stop offset=".88" stop-color="#fff" stop-opacity="0"/></radialGradient><radialGradient id="g11" cx="0" cy="0" r="1" href="#P" gradientTransform="matrix(3.39,0,0,3.39,144.775,18.262)"><stop stop-color="#fff" stop-opacity="1"/><stop offset=".88" stop-color="#fff" stop-opacity="0"/></radialGradient><radialGradient id="g12" cx="0" cy="0" r="1" href="#P" gradientTransform="matrix(3.39,0,0,3.39,685.077,28.07)"><stop stop-color="#fff" stop-opacity="1"/><stop offset=".88" stop-color="#fff" stop-opacity="0"/></radialGradient><radialGradient id="g13" cx="0" cy="0" r="1" href="#P" gradientTransform="matrix(6.379,0,0,6.379,498.913,113.799)"><stop stop-color="#fff" stop-opacity="1"/><stop offset=".88" stop-color="#fff" stop-opacity="0"/></radialGradient><radialGradient id="g14" cx="0" cy="0" r="1" href="#P" gradientTransform="matrix(6.379,0,0,6.379,196.946,78.265)"><stop stop-color="#fff" stop-opacity="1"/><stop offset=".88" stop-color="#fff" stop-opacity="0"/></radialGradient><radialGradient id="g15" cx="0" cy="0" r="1" href="#P" gradientTransform="matrix(2.202,0,0,2.202,579.75,191.841)"><stop stop-color="#fff" stop-opacity="1"/><stop offset=".88" stop-color="#fff" stop-opacity="0"/></radialGradient><radialGradient id="g16" cx="0" cy="0" r="1" href="#P" gradientTransform="matrix(2.203,0,0,2.203,500.046,156.423)"><stop stop-color="#fff" stop-opacity="1"/><stop offset=".88" stop-color="#fff" stop-opacity="0"/></radialGradient><radialGradient id="g17" cx="0" cy="0" r="1" href="#P" gradientTransform="matrix(2.202,0,0,2.202,815.484,76.674)"><stop stop-color="#fff" stop-opacity="1"/><stop offset=".88" stop-color="#fff" stop-opacity="0"/></radialGradient><radialGradient id="g18" cx="0" cy="0" r="1" href="#P" gradientTransform="matrix(2.203,0,0,2.203,668.802,51.902)"><stop stop-color="#fff" stop-opacity="1"/><stop offset=".88" stop-color="#fff" stop-opacity="0"/></radialGradient><radialGradient id="g19" cx="0" cy="0" r="1" href="#P" gradientTransform="matrix(2.203,0,0,2.203,847.764,183.04)"><stop stop-color="#fff" stop-opacity="1"/><stop offset=".88" stop-color="#fff" stop-opacity="0"/></radialGradient><radialGradient id="g20" cx="0" cy="0" r="1" href="#P" gradientTransform="matrix(3.029,0,0,3.029,513.156,225.885)"><stop stop-color="#fff" stop-opacity="1"/><stop offset=".88" stop-color="#fff" stop-opacity="0"/></radialGradient><radialGradient id="g21" cx="0" cy="0" r="1" href="#P" gradientTransform="matrix(2.202,0,0,2.202,663.336,146.815)"><stop stop-color="#fff" stop-opacity="1"/><stop offset=".88" stop-color="#fff" stop-opacity="0"/></radialGradient><radialGradient id="g22" cx="0" cy="0" r="1" href="#P" gradientTransform="matrix(2.202,0,0,2.202,816.521,121.156)"><stop stop-color="#fff" stop-opacity="1"/><stop offset=".88" stop-color="#fff" stop-opacity="0"/></radialGradient><radialGradient id="g23" cx="0" cy="0" r="1" href="#P" gradientTransform="matrix(2.202,0,0,2.202,721.506,227.379)"><stop stop-color="#fff" stop-opacity="1"/><stop offset=".88" stop-color="#fff" stop-opacity="0"/></radialGradient><radialGradient id="g24" cx="0" cy="0" r="1" href="#P" gradientTransform="matrix(2.202,0,0,2.202,651.719,196.484)"><stop stop-color="#fff" stop-opacity="1"/><stop offset=".88" stop-color="#fff" stop-opacity="0"/></radialGradient><radialGradient id="g25" cx="0" cy="0" r="1" href="#P" gradientTransform="matrix(2.202,0,0,2.202,693.882,168.861)"><stop stop-color="#fff" stop-opacity="1"/><stop offset=".88" stop-color="#fff" stop-opacity="0"/></radialGradient><radialGradient id="g26" cx="0" cy="0" r="1" href="#P" gradientTransform="matrix(2.202,0,0,2.202,683.672,95.286)"><stop stop-color="#fff" stop-opacity="1"/><stop offset=".88" stop-color="#fff" stop-opacity="0"/></radialGradient><radialGradient id="g27" cx="0" cy="0" r="1" href="#P" gradientTransform="matrix(2.202,0,0,2.202,769.2,8.317)"><stop stop-color="#fff" stop-opacity="1"/><stop offset=".88" stop-color="#fff" stop-opacity="0"/></radialGradient><radialGradient id="g28" cx="0" cy="0" r="1" href="#P" gradientTransform="matrix(2.202,0,0,2.202,523.744,138.539)"><stop stop-color="#fff" stop-opacity="1"/><stop offset=".88" stop-color="#fff" stop-opacity="0"/></radialGradient><radialGradient id="g29" cx="0" cy="0" r="1" href="#P" gradientTransform="matrix(2.202,0,0,2.202,785.444,30.588)"><stop stop-color="#fff" stop-opacity="1"/><stop offset=".88" stop-color="#fff" stop-opacity="0"/></radialGradient><radialGradient id="g30" cx="0" cy="0" r="1" href="#P" gradientTransform="matrix(2.202,0,0,2.202,1010.585,23.27)"><stop stop-color="#fff" stop-opacity="1"/><stop offset=".88" stop-color="#fff" stop-opacity="0"/></radialGradient><radialGradient id="g31" cx="0" cy="0" r="1" href="#P" gradientTransform="matrix(2.202,0,0,2.202,951.347,150.793)"><stop stop-color="#fff" stop-opacity="1"/><stop offset=".88" stop-color="#fff" stop-opacity="0"/></radialGradient><radialGradient id="g32" cx="0" cy="0" r="1" href="#P" gradientTransform="matrix(2.202,0,0,2.202,797.798,179.542)"><stop stop-color="#fff" stop-opacity="1"/><stop offset=".88" stop-color="#fff" stop-opacity="0"/></radialGradient><radialGradient id="g33" cx="0" cy="0" r="1" href="#P" gradientTransform="matrix(2.202,0,0,2.202,780.351,97.761)"><stop stop-color="#fff" stop-opacity="1"/><stop offset=".88" stop-color="#fff" stop-opacity="0"/></radialGradient><radialGradient id="g34" cx="0" cy="0" r="1" href="#P" gradientTransform="matrix(2.202,0,0,2.202,941.05,77.184)"><stop stop-color="#fff" stop-opacity="1"/><stop offset=".88" stop-color="#fff" stop-opacity="0"/></radialGradient><radialGradient id="g35" cx="0" cy="0" r="1" href="#P" gradientTransform="matrix(2.202,0,0,2.202,907.219,96.238)"><stop stop-color="#fff" stop-opacity="1"/><stop offset=".88" stop-color="#fff" stop-opacity="0"/></radialGradient><radialGradient id="g36" cx="0" cy="0" r="1" href="#P" gradientTransform="matrix(2.202,0,0,2.202,1070.133,141.635)"><stop stop-color="#fff" stop-opacity="1"/><stop offset=".88" stop-color="#fff" stop-opacity="0"/></radialGradient><radialGradient id="g37" cx="0" cy="0" r="1" href="#P" gradientTransform="matrix(2.203,0,0,2.203,721.109,155.985)"><stop stop-color="#fff" stop-opacity="1"/><stop offset=".88" stop-color="#fff" stop-opacity="0"/></radialGradient><radialGradient id="g38" cx="0" cy="0" r="1" href="#P" gradientTransform="matrix(2.202,0,0,2.202,689.851,154.895)"><stop stop-color="#fff" stop-opacity="1"/><stop offset=".88" stop-color="#fff" stop-opacity="0"/></radialGradient><radialGradient id="g39" cx="0" cy="0" r="1" href="#P" gradientTransform="matrix(2.202,0,0,2.202,576.811,58.506)"><stop stop-color="#fff" stop-opacity="1"/><stop offset=".88" stop-color="#fff" stop-opacity="0"/></radialGradient><radialGradient id="g40" cx="0" cy="0" r="1" href="#P" gradientTransform="matrix(2.202,0,0,2.202,490.332,30.588)"><stop stop-color="#fff" stop-opacity="1"/><stop offset=".88" stop-color="#fff" stop-opacity="0"/></radialGradient><radialGradient id="g41" cx="0" cy="0" r="1" href="#P" gradientTransform="matrix(2.202,0,0,2.202,386.194,136.336)"><stop stop-color="#fff" stop-opacity="1"/><stop offset=".88" stop-color="#fff" stop-opacity="0"/></radialGradient><radialGradient id="g42" cx="0" cy="0" r="1" href="#P" gradientTransform="matrix(2.202,0,0,2.202,416.634,113.799)"><stop stop-color="#fff" stop-opacity="1"/><stop offset=".88" stop-color="#fff" stop-opacity="0"/></radialGradient><radialGradient id="g43" cx="0" cy="0" r="1" href="#P" gradientTransform="matrix(2.203,0,0,2.203,28.484,74.206)"><stop stop-color="#fff" stop-opacity="1"/><stop offset=".88" stop-color="#fff" stop-opacity="0"/></radialGradient><radialGradient id="g44" cx="0" cy="0" r="1" href="#P" gradientTransform="matrix(2.203,0,0,2.203,102.686,93.083)"><stop stop-color="#fff" stop-opacity="1"/><stop offset=".88" stop-color="#fff" stop-opacity="0"/></radialGradient><radialGradient id="g45" cx="0" cy="0" r="1" href="#P" gradientTransform="matrix(2.203,0,0,2.203,28.558,176.531)"><stop stop-color="#fff" stop-opacity="1"/><stop offset=".88" stop-color="#fff" stop-opacity="0"/></radialGradient><radialGradient id="g46" cx="0" cy="0" r="1" href="#P" gradientTransform="matrix(2.202,0,0,2.202,48.682,196.484)"><stop stop-color="#fff" stop-opacity="1"/><stop offset=".88" stop-color="#fff" stop-opacity="0"/></radialGradient><radialGradient id="g47" cx="0" cy="0" r="1" href="#P" gradientTransform="matrix(2.202,0,0,2.202,621.882,74.204)"><stop stop-color="#fff" stop-opacity="1"/><stop offset=".88" stop-color="#fff" stop-opacity="0"/></radialGradient><radialGradient id="g48" cx="0" cy="0" r="1" href="#P" gradientTransform="matrix(2.203,0,0,2.203,889.396,211.96)"><stop stop-color="#fff" stop-opacity="1"/><stop offset=".88" stop-color="#fff" stop-opacity="0"/></radialGradient><radialGradient id="g49" cx="0" cy="0" r="1" href="#P" gradientTransform="matrix(2.202,0,0,2.202,905.016,141.37)"><stop stop-color="#fff" stop-opacity="1"/><stop offset=".88" stop-color="#fff" stop-opacity="0"/></radialGradient><radialGradient id="g50" cx="0" cy="0" r="1" href="#P" gradientTransform="matrix(2.202,0,0,2.202,924.609,131.363)"><stop stop-color="#fff" stop-opacity="1"/><stop offset=".88" stop-color="#fff" stop-opacity="0"/></radialGradient><radialGradient id="g51" cx="0" cy="0" r="1" href="#P" gradientTransform="matrix(2.202,0,0,2.202,870.496,165.799)"><stop stop-color="#fff" stop-opacity="1"/><stop offset=".88" stop-color="#fff" stop-opacity="0"/></radialGradient><radialGradient id="g52" cx="0" cy="0" r="1" href="#P" gradientTransform="matrix(2.92,0,0,2.92,782.183,209.038)"><stop stop-color="#fff" stop-opacity="1"/><stop offset=".88" stop-color="#fff" stop-opacity="0"/></radialGradient><radialGradient id="g53" cx="0" cy="0" r="1" href="#P" gradientTransform="matrix(2.92,0,0,2.92,475.5,131.363)"><stop stop-color="#fff" stop-opacity="1"/><stop offset=".88" stop-color="#fff" stop-opacity="0"/></radialGradient><radialGradient id="g54" cx="0" cy="0" r="1" href="#P" gradientTransform="matrix(2.92,0,0,2.92,378.286,40.537)"><stop stop-color="#fff" stop-opacity="1"/><stop offset=".88" stop-color="#fff" stop-opacity="0"/></radialGradient><radialGradient id="g55" cx="0" cy="0" r="1" href="#P" gradientTransform="matrix(2.92,0,0,2.92,626.079,27.543)"><stop stop-color="#fff" stop-opacity="1"/><stop offset=".88" stop-color="#fff" stop-opacity="0"/></radialGradient><radialGradient id="g56" cx="0" cy="0" r="1" href="#P" gradientTransform="matrix(2.92,0,0,2.92,471.565,51.902)"><stop stop-color="#fff" stop-opacity="1"/><stop offset=".88" stop-color="#fff" stop-opacity="0"/></radialGradient><radialGradient id="g57" cx="0" cy="0" r="1" href="#P" gradientTransform="matrix(2.92,0,0,2.92,859.228,124.727)"><stop stop-color="#fff" stop-opacity="1"/><stop offset=".88" stop-color="#fff" stop-opacity="0"/></radialGradient><radialGradient id="g58" cx="0" cy="0" r="1" href="#P" gradientTransform="matrix(2.92,0,0,2.92,1046.766,170.277)"><stop stop-color="#fff" stop-opacity="1"/><stop offset=".88" stop-color="#fff" stop-opacity="0"/></radialGradient><radialGradient id="g59" cx="0" cy="0" r="1" href="#P" gradientTransform="matrix(2.92,0,0,2.92,970.382,99.964)"><stop stop-color="#fff" stop-opacity="1"/><stop offset=".88" stop-color="#fff" stop-opacity="0"/></radialGradient><radialGradient id="g60" cx="0" cy="0" r="1" href="#P" gradientTransform="matrix(2.92,0,0,2.92,956.469,16.15)"><stop stop-color="#fff" stop-opacity="1"/><stop offset=".88" stop-color="#fff" stop-opacity="0"/></radialGradient><radialGradient id="g61" cx="0" cy="0" r="1" href="#P" gradientTransform="matrix(2.92,0,0,2.92,904.299,179.611)"><stop stop-color="#fff" stop-opacity="1"/><stop offset=".88" stop-color="#fff" stop-opacity="0"/></radialGradient><radialGradient id="g62" cx="0" cy="0" r="1" href="#P" gradientTransform="matrix(2.202,0,0,2.202,834.811,229.582)"><stop stop-color="#fff" stop-opacity="1"/><stop offset=".88" stop-color="#fff" stop-opacity="0"/></radialGradient><radialGradient id="g63" cx="0" cy="0" r="1" href="#P" gradientTransform="matrix(2.202,0,0,2.202,994.165,111.07)"><stop stop-color="#fff" stop-opacity="1"/><stop offset=".88" stop-color="#fff" stop-opacity="0"/></radialGradient><radialGradient id="g64" cx="0" cy="0" r="1" href="#P" gradientTransform="matrix(2.202,0,0,2.202,862.148,74.982)"><stop stop-color="#fff" stop-opacity="1"/><stop offset=".88" stop-color="#fff" stop-opacity="0"/></radialGradient><radialGradient id="g65" cx="0" cy="0" r="1" href="#P" gradientTransform="matrix(2.202,0,0,2.202,604.822,253.051)"><stop stop-color="#fff" stop-opacity="1"/><stop offset=".88" stop-color="#fff" stop-opacity="0"/></radialGradient><radialGradient id="g66" cx="0" cy="0" r="1" href="#P" gradientTransform="matrix(2.202,0,0,2.202,1080.615,174.467)"><stop stop-color="#fff" stop-opacity="1"/><stop offset=".88" stop-color="#fff" stop-opacity="0"/></radialGradient><radialGradient id="g67" cx="0" cy="0" r="1" href="#P" gradientTransform="matrix(2.202,0,0,2.202,1010.829,143.572)"><stop stop-color="#fff" stop-opacity="1"/><stop offset=".88" stop-color="#fff" stop-opacity="0"/></radialGradient><radialGradient id="g68" cx="0" cy="0" r="1" href="#P" gradientTransform="matrix(2.203,0,0,2.203,1158.624,148.591)"><stop stop-color="#fff" stop-opacity="1"/><stop offset=".88" stop-color="#fff" stop-opacity="0"/></radialGradient><radialGradient id="g69" cx="0" cy="0" r="1" href="#P" gradientTransform="matrix(2.203,0,0,2.203,1156.907,206.118)"><stop stop-color="#fff" stop-opacity="1"/><stop offset=".88" stop-color="#fff" stop-opacity="0"/></radialGradient><radialGradient id="g70" cx="0" cy="0" r="1" href="#P" gradientTransform="matrix(2.202,0,0,2.202,1042.781,42.373)"><stop stop-color="#fff" stop-opacity="1"/><stop offset=".88" stop-color="#fff" stop-opacity="0"/></radialGradient><radialGradient id="g71" cx="0" cy="0" r="1" href="#P" gradientTransform="matrix(2.202,0,0,2.202,1171.207,145.775)"><stop stop-color="#fff" stop-opacity="1"/><stop offset=".88" stop-color="#fff" stop-opacity="0"/></radialGradient><radialGradient id="g72" cx="0" cy="0" r="1" href="#P" gradientTransform="matrix(2.202,0,0,2.202,1171.207,33.978)"><stop stop-color="#fff" stop-opacity="1"/><stop offset=".88" stop-color="#fff" stop-opacity="0"/></radialGradient><radialGradient id="g73" cx="0" cy="0" r="1" href="#P" gradientTransform="matrix(2.202,0,0,2.202,1129.65,31.469)"><stop stop-color="#fff" stop-opacity="1"/><stop offset=".88" stop-color="#fff" stop-opacity="0"/></radialGradient><radialGradient id="g74" cx="0" cy="0" r="1" href="#P" gradientTransform="matrix(2.202,0,0,2.202,1172.22,85.219)"><stop stop-color="#fff" stop-opacity="1"/><stop offset=".88" stop-color="#fff" stop-opacity="0"/></radialGradient><radialGradient id="g75" cx="0" cy="0" r="1" href="#P" gradientTransform="matrix(2.202,0,0,2.202,1080.218,103.073)"><stop stop-color="#fff" stop-opacity="1"/><stop offset=".88" stop-color="#fff" stop-opacity="0"/></radialGradient><radialGradient id="g76" cx="0" cy="0" r="1" href="#P" gradientTransform="matrix(2.202,0,0,2.202,975.505,212.52)"><stop stop-color="#fff" stop-opacity="1"/><stop offset=".88" stop-color="#fff" stop-opacity="0"/></radialGradient><radialGradient id="g77" cx="0" cy="0" r="1" href="#P" gradientTransform="matrix(2.203,0,0,2.203,872.698,29.267)"><stop stop-color="#fff" stop-opacity="1"/><stop offset=".88" stop-color="#fff" stop-opacity="0"/></radialGradient><radialGradient id="g78" cx="0" cy="0" r="1" href="#P" gradientTransform="matrix(2.92,0,0,2.92,1144.212,179.542)"><stop stop-color="#fff" stop-opacity="1"/><stop offset=".88" stop-color="#fff" stop-opacity="0"/></radialGradient><linearGradient id="g79" x2="1" href="#P" gradientTransform="matrix(76.953,-49.539,4.619,7.175,375.062,44.132)"><stop stop-color="#ffd" stop-opacity=".5"/><stop offset="1" stop-color="#ce75e3" stop-opacity="0"/></linearGradient><linearGradient id="g80" x2="1" href="#P" gradientTransform="matrix(58.478,-37.646,1.421,2.207,577.134,98.229)"><stop stop-color="#ffd" stop-opacity="1"/><stop offset="1" stop-color="#ce75e3" stop-opacity="0"/></linearGradient><linearGradient id="g81" x2="1" href="#P" gradientTransform="matrix(60.968,-39.249,1.42,2.206,526.327,19.577)"><stop stop-color="#ffd" stop-opacity="1"/><stop offset="1" stop-color="#ce75e3" stop-opacity="0"/></linearGradient><linearGradient id="g82" x2="1" href="#P" gradientTransform="matrix(84.291,-54.264,2.134,3.315,958.014,85.255)"><stop stop-color="#ffd" stop-opacity="1"/><stop offset="1" stop-color="#ce75e3" stop-opacity="0"/></linearGradient><linearGradient id="g83" x2="1" href="#P" gradientTransform="matrix(106.212,-68.375,2.38,3.696,524.612,112.692)"><stop stop-color="#ffd" stop-opacity="1"/><stop offset="1" stop-color="#ce75e3" stop-opacity="0"/></linearGradient></defs><style>.a{fill:url(#g1)}.b{fill:url(#g2)}.c{fill:url(#g3)}.d{fill:url(#g4)}.e{fill:url(#g5)}.f{fill:url(#g6)}.g{fill:url(#g7)}.h{fill:url(#g8)}.i{fill:url(#g9)}.j{fill:url(#g10)}.k{fill:url(#g11)}.l{opacity:.5;fill:url(#g12)}.m{fill:url(#g13)}.n{fill:url(#g14)}.o{fill:url(#g15)}.p{fill:url(#g16)}.q{fill:url(#g17)}.r{fill:url(#g18)}.s{fill:url(#g19)}.t{fill:url(#g20)}.u{fill:url(#g21)}.v{fill:url(#g22)}.w{opacity:.3;fill:url(#g23)}.x{opacity:.3;fill:url(#g24)}.y{opacity:.3;fill:url(#g25)}.z{opacity:.3;fill:url(#g26)}.A{opacity:.3;fill:url(#g27)}.B{opacity:.3;fill:url(#g28)}.C{opacity:.7;fill:url(#g29)}.D{opacity:.7;fill:url(#g30)}.E{opacity:.7;fill:url(#g31)}.F{opacity:.5;fill:url(#g32)}.G{opacity:.3;fill:url(#g33)}.H{opacity:.3;fill:url(#g34)}.I{opacity:.3;fill:url(#g35)}.J{opacity:.5;fill:url(#g36)}.K{opacity:.3;fill:url(#g37)}.L{opacity:.3;fill:url(#g38)}.M{opacity:.7;fill:url(#g39)}.N{opacity:.7;fill:url(#g40)}.O{opacity:.7;fill:url(#g41)}.P{opacity:.7;fill:url(#g42)}.Q{opacity:.7;fill:url(#g43)}.R{opacity:.7;fill:url(#g44)}.S{opacity:.7;fill:url(#g45)}.T{opacity:.7;fill:url(#g46)}.U{opacity:.7;fill:url(#g47)}.V{opacity:.3;fill:url(#g48)}.W{opacity:.3;fill:url(#g49)}.X{opacity:.3;fill:url(#g50)}.Y{opacity:.3;fill:url(#g51)}.Z{opacity:.7;fill:url(#g52)}.a0{opacity:.7;fill:url(#g53)}.a1{opacity:.7;fill:url(#g54)}.a2{opacity:.7;fill:url(#g55)}.a3{opacity:.7;fill:url(#g56)}.a4{opacity:.7;fill:url(#g57)}.a5{opacity:.7;fill:url(#g58)}.a6{opacity:.7;fill:url(#g59)}.a7{opacity:.7;fill:url(#g60)}.a8{opacity:.7;fill:url(#g61)}.a9{opacity:.3;fill:url(#g62)}.aa{opacity:.1;fill:#fff}.ab{opacity:.3;fill:#fff}.ac{fill:#fff}.ad{fill:url(#g63)}.ae{fill:url(#g64)}.af{fill:url(#g65)}.ag{opacity:.3;fill:url(#g66)}.ah{opacity:.3;fill:url(#g67)}.ai{opacity:.3;fill:url(#g68)}.aj{opacity:.3;fill:url(#g69)}.ak{opacity:.3;fill:url(#g70)}.al{opacity:.3;fill:url(#g71)}.am{opacity:.3;fill:url(#g72)}.an{opacity:.3;fill:url(#g73)}.ao{opacity:.3;fill:url(#g74)}.ap{opacity:.3;fill:url(#g75)}.aq{opacity:.5;fill:url(#g76)}.ar{opacity:.7;fill:url(#g77)}.as{opacity:.7;fill:url(#g78)}.at{fill:url(#g79)}.au{fill:url(#g80)}.av{fill:url(#g81)}.aw{fill:url(#g82)}.ax{fill:url(#g83)}</style><g clip-path="url(#cp1)"><path class="a" d="m1193.3 0.3v763.4h-1192.6v-763.4z"/><path class="b" d="m859 366.3q27.1-6.6 54.3-13.3c-10.1 7.6-21.7 13-33.8 16 29.4 10.3 56.3-24.6 87.3-27.3 5.7-0.5 11.6 0.1 16.9-1.9 11.6-4.3 16.4-18.7 26.4-26.1 7.6-5.7 17.8-6.9 25.4-12.7 14.9-11.2 11.2-33.4 31.9-39 5-1.4 11.7-2.5 12.7-7.6 0.6-3.4-1.9-6.6-2.3-10-0.6-5 3.3-9.2 6.3-13.2 7.9-10.1 11.7-22.7 15.4-35-4 13.4-17 27.6-26.2 37.8-9.4 10.5-17.5 20.1-28.9 29.1-24.4 19.3-51.3 35.4-80 47.5 31-14.3 59.3-34.6 83-59.7 3.9-4.2 7.9-8.7 9.3-14.4 1.3-5.2 0.2-10.8 1.4-16 2.8-12.6 16.8-19 22.4-30.5 3.1-6.3 3.3-13.6 5.1-20.4 5.5-21.2 24.6-35.4 43.3-45.8 8.9-5 19.5-7.9 27.3-14.5 14.6-12.6 18.7-37 37.1-42.8 5-1.5 10.9-1.2 14.8 2.2 4 3.4 5.3 8.9 7.2 13.8 5.8 15.1 18.9 26.1 27 40.2 4.6 8 7.5 18.3 3 26.4-6.9 12.5-25.2 16.1-34.7 26.8-12.2 13.7-18.9 29.4-37.8 35.7-3.4 1.1-7 2-9.6 4.6-3.2 3.3-3.7 8.5-3.6 13.2 0.2 4.7 0.8 9.6-0.9 14-3.3 8.1-12.4 11.1-17.2 17.8-6.6 9.2-5.8 21.4-10.2 31.5-5.7 13.2-26.6 38.7-39.9 43.2 21.3-3.7 71.7-51.5 88.9-87.2-9 36.7-61.5 81.6-80.9 106.9-6.3 8.2-12.8 16.6-21.5 22.1-9.5 6.1-20.9 8.2-31.8 11.1-58.2 15.5-109.3 57.3-169.2 62q48.1-22.9 96.2-45.8c-19.4 11.1-42.1 15.7-64.1 12.9-6.1-0.8-12.5-2.1-18.1 0.4-5.2 2.3-8.8 7.4-13.8 10.2-13.6 7.4-30.3-5.1-45.2-1.5-6.6 1.6-12 6.1-17.7 9.8-19.4 12.2-42.8 14.8-65.4 17.1q-25.3 2.6-50.6 5.2c-5.2 0.5-10.4 1-15.6 0.3-6.6-0.9-14.1-4.7-20.7-1.2-2.5 1.3-4.8 3.2-7.5 4.1-4.3 1.4-8.9-0.1-13.4 0.1-3.9 0.2-7.6 1.6-11.3 2.8-20.9 6.6-43.1 6.9-64.9 7.2 9.7-2.4 20.1-1.4 29.2-5.4 2.2-1 4.3-2.2 6.6-3.1 4.5-1.6 9.4-1.4 14.2-1.8 8.3-0.8 17.4-4.4 20.8-12.3-7.6 2.3-15.6 3.1-23.4 2.3-3.5-0.4-7-1-10.3 0.1-2.5 0.8-4.5 2.6-6.8 4-5.9 3.6-13.2 4.4-19.7 2.2-2.7-0.9-5.2-2.3-8-2.6-2.6-0.4-5.3 0.1-7.9 0.6-39.2 7.4-79.4 5.3-119.2 3.2 36.3-4.2 73.8 1.3 108.8-9.5 2.3-0.7 4.7-1.5 6.6-3 2.4-2 4-5 6.5-6.8 2.6-1.8 7-1.5 7.8 1.6 3.4-7.2 11.3-11.9 19-11.3 4.9 0.4 9.8 2.6 14.5 1.4 10-2.5 10.7-15.7 19.6-19.4 21.8-9.1 46.1 5.9 69.6 3.9 36.7-3.2 62.7-46.9 99.5-45.9 5.5 0.2 11 1.3 16.4 0.3 9.1-1.8 15.9-9.5 23.6-14.8 33.7-23.4 84.8-1.5 116.9-27.3q-45.1 18.8-90.1 37.5z"/><path class="c" d="m128.2 392c-3.9-0.5-7.9-0.7-11.6-1-16.9-1.7-34.2-3.5-47.5-15.2-2.9-2.6-5.6-5.5-8.9-7.7-4.4-3-9.6-4.6-14.5-6.6-34.4-13.8-67.9-42.6-86.4-69.2 19.1 16.2 48.5 43.8 79.3 53.6-3-6.6-15.2-6.2-15.7-13.4-0.1-2.4 1.3-4.7 0.9-7-0.7-3.4-4.7-4.7-7.5-6.7-5.7-4.1-7-12-7.1-19.1 0-7 0.7-14.5-2.6-20.7-1.7-3.5-4.6-6.2-7.2-9-28-29.6-42.4-69.5-50.7-109.4 17 28.8 39.9 54 66.8 73.8 2.9 2.2 6.4 4.4 9.9 3.6-2.3-7.5-8.2-13.3-13.8-18.9-10.1-10.1-20.1-21.3-24.1-35.1 5.3 12.9 14.3 24.4 25.7 32.4 1.6 1.1 3.3 2.2 5.2 2.1 1.7-0.1 3.2-1.2 4.7-1.9 6.5-3 16.2 0 19.8 6.2 4.3 7.2 1.1 18.9 1.8 27 0.8 7.9 4.5 16.5 12 18.9 2.5 0.8 5.3 0.9 7.3 2.6 4.8 3.9 1.2 12.7 5.5 17.2 2 2.2 5.3 2.7 8.1 3.9 2.8 1.3 5.3 4.5 3.8 7.1 7.8-1.9 16-3.7 23.9-2.1 10 2.1 18.6 10.2 21.2 20.1 2.5 9.5-0.3 19.6 0.3 29.5 0.1 1.6 0.3 3.2 1.1 4.6 2.9 4.8 10 3.1 15.6 2.5 10.4-0.9 21 5.4 25.1 15 2.3 5.6 3.2 12.7 8.6 15.4 10.7 5.2 15.8-2.4 20.2 11.2 3.4 10.2 11.8 13.7 22.2 17.3 15 5 30.3 9.1 45.9 12q-23.9-2.9-47.7-6.2c-10.7-1.6-21.6-3.2-31.3-8-4.4-2.1-8.6-5-13.4-5.9-5.7-1.2-11.7 0.3-17.4-1.1-6.8-1.8-11.6-7.3-18.1-9.8-2.9-1.1-6.1-1.6-9.4-2z"/><path class="d" d="m63.5 477.8c-14.9-7.4-20.1-24.8-33.8-32.5-12.8-7.3-27.6-9.9-28-28.4-0.1-3.9 0.6-8-1.1-11.4-1.1-2.3-3.1-3.9-5-5.5-11.9-9.9-22.7-21.1-32.2-33.3 11.8 11.8 27.3 19.9 43.7 23-26.5-20-53.7-41.4-68.1-71.4 9.8 12.7 20.3 24.9 31.4 36.4 2.8 2.9 6.3 6.1 10.4 5.5 2-0.2 3.7-1.4 5.6-2 8.1-3 16.7 2.5 22.7 8.6 6 6.1 11.5 13.6 19.8 16 5.4 1.6 11.2 0.7 16.9 1.1 13.1 0.8 23 9.3 33.1 16.8 3.7 2.8 7.4 6 12 6.3 3.9 0.1 7.5-1.9 11.2-3 12.2-3.8 26.7 3.2 31.4 15.1 0.5 1.5 1 3.1 2.2 4.2 3.1 2.9 8.1 0 12.3 0.5 6.5 0.6 9.3 8.4 14.2 12.5 3.7 3.2 8.7 4.2 13.5 5.1 19.2 3.6 38.5 6.1 58 7.3q-20.7 0.2-41.4 0.3c31.2 5.6 63 7.8 94.6 6.4-22.8 4.1-46 6.1-69.1 5.8 12.7 3.5 25.8 5.8 39 6.9 20.8 1.7 42.5 0.4 61.9 8.3q-16.7-0.6-33.3-1.3c-10.4-0.4-20.9-0.8-31.1 0.9-6 0.9-11.9 2.5-17.9 2.6-15.2 0-28.7-9.9-43.7-11.5-4.2-0.5-8.5-0.2-12.1 1.9-3 1.8-5.1 4.6-7.4 7.2-16.7 18.6-47.8 21.9-68 7.2-5.1-3.8-9.6-8.5-15.5-10.8-1.1-0.4-2.3-0.8-3.4-0.5-2.1 0.5-3.1 2.8-4.5 4.4-4.2 5.1-12.4 4.2-18.3 1.3z"/><path class="e" d="m850.5 273.7c-10.5 7.6-21.9 15.4-34.8 15.8-4.9 0.2-10.2-0.6-14.1 2.3-2.6 2-4.9 5.7-8.1 5-1.7-0.4-2.8-1.9-4.1-3.1-5.9-5.5-15.6-3.3-22.6 0.7-9.7 5.6-17.7 14.1-22.6 24.3-2.6 5.4-5 11.9-10.7 13.8-5.7 2-12-1.8-17.9-0.4-8 1.9-12.6 12.7-20.9 12.1-3.7-0.2-6.8-2.9-10-5-12.3-8.3-28.8-9.2-43.1-4.8-14.2 4.4-26.7 13.4-37.6 23.6-5.2 4.7-10.2 9.9-16.8 12.3-5.2 1.8-11.5 2.1-16.9 1.5-5-0.5-10.3-2-14.5 1.9-1.1 1-2 2.3-3.1 3.3-3.3 3.1-8.4 3.2-12.7 4.5-6.1 1.8-11 6.1-16 9.9-12.5 9.5-27.2 16.1-42.5 19.3 6.2-1.3 13.2-0.1 19.6-1.4 5.7-1.2 11.3-1.6 16.9-2.8 13.7-3.2 27.2-7.1 40.4-11.9-18.5 12.1-39.6 19.3-60.5 26.5q17.8-3.7 35.4-8c9.7-2.3 21.2-7.4 31.2-6.6-3.3 4.9-9.7 6.5-15.6 7.1-5.9 0.7-12.2 0.9-17 4.4-2.1 1.5-3.7 3.5-5.9 4.9-3 1.7-6.6 1.9-9.9 2.9-5.2 1.6-9.5 5-14.3 7.5-7.1 3.7-17.9 5.8-25.8 6.1-20.2 0.9-38.6 5.3-59.1 11.5 50.1-6.6 94.6-13.7 139.4-29.5 13.5-4.8 26.9-10.5 41.2-12 11.3-1.1 22.7 0.4 34 0 11.3-0.5 23.3-3.4 31-11.7 2.4-2.5 4.6-5.7 7.9-6.8 2.3-0.8 4.7-0.5 7.1-0.3 10.9 1.3 23.9 0.9 30.4-7.9 1.4-1.8 2.4-3.9 4.1-5.6 2.3-2.3 5.5-3.3 8.6-4.3 22.2-7.1 43.4-17.5 62.7-30.7-20.1 10.5-98.2 42.5-133.3 44.4 49.6-11.2 103.7-39.3 118.5-50.1 8.9-6.5 21.2-11.1 28.2-19.5 7-8.3 13.3-18 22.6-24 4.8-3 10.2-3.8 15-6.7 5.9-3.4 11.4-7.7 16.2-12.5z"/><path class="f" d="m521.5 369.8c-43.9 23.1-95.4 33.2-148 37.6 7.4-1.4 15.1-2.4 22.3-4.7 6.6-2.2 10.2-2 15.7-6.4 2.5-2 5.3-4.1 8.6-4.2 1 0 2.1 0.2 3.2 0.1 4-0.4 6.3-4.8 9.8-6.9 3-1.9 10.8-2.6 14.4-3 9.6-1.1 11.4-5.1 19.8-9.4 8.8-4.4 22.8-6.7 30.7-12.6-15 11.2-32.7 20.6-49.8 25.8 7.2 1 14.7-0.3 21-3.9 3.5-1.9 6.7-4.4 10.5-5.3 2.8-0.6 11.1 1.8 13.9 1.2 10.4-2 17.9-6.9 27.9-8.3z"/><path class="g" d="m255.1 44.9c0 1.9-1.5 3.4-3.4 3.4-1.9 0-3.4-1.5-3.4-3.4 0-1.8 1.5-3.4 3.4-3.4 1.9 0 3.4 1.6 3.4 3.4z"/><path class="h" d="m282.5 30.6c0 1.9-1.5 3.4-3.4 3.4-1.8 0-3.4-1.5-3.4-3.4 0-1.9 1.6-3.4 3.4-3.4 1.9 0 3.4 1.5 3.4 3.4z"/><path class="i" d="m301.4 140.5c0 1.9-1.5 3.4-3.4 3.4-1.9 0-3.4-1.5-3.4-3.4 0-1.9 1.5-3.4 3.4-3.4 1.9 0 3.4 1.5 3.4 3.4z"/><path class="j" d="m254.8 175.3c0 1.9-1.5 3.4-3.4 3.4-1.9 0-3.4-1.5-3.4-3.4 0-1.9 1.5-3.4 3.4-3.4 1.9 0 3.4 1.5 3.4 3.4z"/><path class="k" d="m148.2 18.3c0 1.8-1.6 3.4-3.4 3.4-1.9 0-3.4-1.6-3.4-3.4 0-1.9 1.5-3.4 3.4-3.4 1.8 0 3.4 1.5 3.4 3.4z"/><path class="l" d="m688.5 28.1c0 1.8-1.6 3.4-3.4 3.4-1.9 0-3.4-1.6-3.4-3.4 0-1.9 1.5-3.4 3.4-3.4 1.8 0 3.4 1.5 3.4 3.4z"/><path class="m" d="m505.3 113.8c0 3.5-2.9 6.4-6.4 6.4-3.5 0-6.4-2.9-6.4-6.4 0-3.5 2.9-6.4 6.4-6.4 3.5 0 6.4 2.9 6.4 6.4z"/><path class="n" d="m203.3 78.3c0 3.5-2.8 6.3-6.4 6.3-3.5 0-6.3-2.8-6.3-6.3 0-3.6 2.8-6.4 6.3-6.4 3.6 0 6.4 2.8 6.4 6.4z"/><path class="o" d="m582 191.8c0 1.3-1 2.2-2.3 2.2-1.2 0-2.2-0.9-2.2-2.2 0-1.2 1-2.2 2.2-2.2 1.3 0 2.3 1 2.3 2.2z"/><path class="p" d="m502.2 156.4c0 1.2-0.9 2.2-2.2 2.2-1.2 0-2.2-1-2.2-2.2 0-1.2 1-2.2 2.2-2.2 1.3 0 2.2 1 2.2 2.2z"/><path class="q" d="m817.7 76.7c0 1.2-1 2.2-2.2 2.2-1.2 0-2.2-1-2.2-2.2 0-1.2 1-2.2 2.2-2.2 1.2 0 2.2 1 2.2 2.2z"/><path class="r" d="m671 51.9c0 1.2-1 2.2-2.2 2.2-1.2 0-2.2-1-2.2-2.2 0-1.2 1-2.2 2.2-2.2 1.2 0 2.2 1 2.2 2.2z"/><path class="s" d="m850 183c0 1.3-1 2.2-2.2 2.2-1.3 0-2.2-0.9-2.2-2.2 0-1.2 0.9-2.2 2.2-2.2 1.2 0 2.2 1 2.2 2.2z"/><path class="t" d="m516.2 225.9c0 1.7-1.4 3-3 3-1.7 0-3.1-1.3-3.1-3 0-1.7 1.4-3 3.1-3 1.6 0 3 1.3 3 3z"/><path class="u" d="m665.5 146.8c0 1.2-0.9 2.2-2.2 2.2-1.2 0-2.2-1-2.2-2.2 0-1.2 1-2.2 2.2-2.2 1.3 0 2.2 1 2.2 2.2z"/><path class="v" d="m818.7 121.2c0 1.2-1 2.2-2.2 2.2-1.2 0-2.2-1-2.2-2.2 0-1.3 1-2.2 2.2-2.2 1.2 0 2.2 0.9 2.2 2.2z"/><path class="w" d="m723.7 227.4c0 1.2-1 2.2-2.2 2.2-1.2 0-2.2-1-2.2-2.2 0-1.2 1-2.2 2.2-2.2 1.2 0 2.2 1 2.2 2.2z"/><path class="x" d="m653.9 196.5c0 1.2-1 2.2-2.2 2.2-1.2 0-2.2-1-2.2-2.2 0-1.2 1-2.2 2.2-2.2 1.2 0 2.2 1 2.2 2.2z"/><path class="y" d="m696.1 168.9c0 1.2-1 2.2-2.2 2.2-1.2 0-2.2-1-2.2-2.2 0-1.3 1-2.2 2.2-2.2 1.2 0 2.2 0.9 2.2 2.2z"/><path class="z" d="m685.9 95.3c0 1.2-1 2.2-2.2 2.2-1.2 0-2.2-1-2.2-2.2 0-1.2 1-2.2 2.2-2.2 1.2 0 2.2 1 2.2 2.2z"/><path class="A" d="m771.4 8.3c0 1.2-1 2.2-2.2 2.2-1.2 0-2.2-1-2.2-2.2 0-1.2 1-2.2 2.2-2.2 1.2 0 2.2 1 2.2 2.2z"/><path class="B" d="m525.9 138.5c0 1.3-0.9 2.2-2.2 2.2-1.2 0-2.2-0.9-2.2-2.2 0-1.2 1-2.2 2.2-2.2 1.3 0 2.2 1 2.2 2.2z"/><path class="C" d="m787.6 30.6c0 1.2-0.9 2.2-2.2 2.2-1.2 0-2.2-1-2.2-2.2 0-1.2 1-2.2 2.2-2.2 1.3 0 2.2 1 2.2 2.2z"/><path class="D" d="m1012.8 23.3c0 1.2-1 2.2-2.2 2.2-1.2 0-2.2-1-2.2-2.2 0-1.2 1-2.2 2.2-2.2 1.2 0 2.2 1 2.2 2.2z"/><path class="E" d="m953.5 150.8c0 1.2-0.9 2.2-2.2 2.2-1.2 0-2.2-1-2.2-2.2 0-1.2 1-2.2 2.2-2.2 1.3 0 2.2 1 2.2 2.2z"/><path class="F" d="m800 179.5c0 1.3-1 2.2-2.2 2.2-1.2 0-2.2-0.9-2.2-2.2 0-1.2 1-2.2 2.2-2.2 1.2 0 2.2 1 2.2 2.2z"/><path class="G" d="m782.6 97.8c0 1.2-1 2.2-2.2 2.2-1.3 0-2.3-1-2.3-2.2 0-1.3 1-2.2 2.3-2.2 1.2 0 2.2 0.9 2.2 2.2z"/><path class="H" d="m943.3 77.2c0 1.2-1 2.2-2.3 2.2-1.2 0-2.2-1-2.2-2.2 0-1.2 1-2.2 2.2-2.2 1.3 0 2.3 1 2.3 2.2z"/><path class="I" d="m909.4 96.2c0 1.3-1 2.2-2.2 2.2-1.2 0-2.2-0.9-2.2-2.2 0-1.2 1-2.2 2.2-2.2 1.2 0 2.2 1 2.2 2.2z"/><path class="J" d="m1072.3 141.6c0 1.3-1 2.2-2.2 2.2-1.2 0-2.2-0.9-2.2-2.2 0-1.2 1-2.2 2.2-2.2 1.2 0 2.2 1 2.2 2.2z"/><path class="K" d="m723.3 156c0 1.2-1 2.2-2.2 2.2-1.2 0-2.2-1-2.2-2.2 0-1.2 1-2.2 2.2-2.2 1.2 0 2.2 1 2.2 2.2z"/><path class="L" d="m692.1 154.9c0 1.2-1 2.2-2.2 2.2-1.3 0-2.3-1-2.3-2.2 0-1.2 1-2.2 2.3-2.2 1.2 0 2.2 1 2.2 2.2z"/><path class="M" d="m579 58.5c0 1.2-1 2.2-2.2 2.2-1.2 0-2.2-1-2.2-2.2 0-1.2 1-2.2 2.2-2.2 1.2 0 2.2 1 2.2 2.2z"/><path class="N" d="m492.5 30.6c0 1.2-1 2.2-2.2 2.2-1.2 0-2.2-1-2.2-2.2 0-1.2 1-2.2 2.2-2.2 1.2 0 2.2 1 2.2 2.2z"/><path class="O" d="m388.4 136.3c0 1.3-1 2.2-2.2 2.2-1.2 0-2.2-0.9-2.2-2.2 0-1.2 1-2.2 2.2-2.2 1.2 0 2.2 1 2.2 2.2z"/><path class="P" d="m418.8 113.8c0 1.2-0.9 2.2-2.2 2.2-1.2 0-2.2-1-2.2-2.2 0-1.2 1-2.2 2.2-2.2 1.3 0 2.2 1 2.2 2.2z"/><path class="Q" d="m30.7 74.2c0 1.2-1 2.2-2.2 2.2-1.2 0-2.2-1-2.2-2.2 0-1.2 1-2.2 2.2-2.2 1.2 0 2.2 1 2.2 2.2z"/><path class="R" d="m104.9 93.1c0 1.2-1 2.2-2.2 2.2-1.2 0-2.2-1-2.2-2.2 0-1.2 1-2.2 2.2-2.2 1.2 0 2.2 1 2.2 2.2z"/><path class="S" d="m30.8 176.5c0 1.2-1 2.2-2.2 2.2-1.3 0-2.2-1-2.2-2.2 0-1.2 0.9-2.2 2.2-2.2 1.2 0 2.2 1 2.2 2.2z"/><path class="T" d="m50.9 196.5c0 1.2-1 2.2-2.2 2.2-1.2 0-2.2-1-2.2-2.2 0-1.2 1-2.2 2.2-2.2 1.2 0 2.2 1 2.2 2.2z"/><path class="U" d="m624.1 74.2c0 1.2-1 2.2-2.2 2.2-1.2 0-2.2-1-2.2-2.2 0-1.2 1-2.2 2.2-2.2 1.2 0 2.2 1 2.2 2.2z"/><path class="V" d="m891.6 212c0 1.2-1 2.2-2.2 2.2-1.2 0-2.2-1-2.2-2.2 0-1.3 1-2.2 2.2-2.2 1.2 0 2.2 0.9 2.2 2.2z"/><path class="W" d="m907.2 141.4c0 1.2-1 2.2-2.2 2.2-1.2 0-2.2-1-2.2-2.2 0-1.2 1-2.2 2.2-2.2 1.2 0 2.2 1 2.2 2.2z"/><path class="X" d="m926.8 131.4c0 1.2-1 2.2-2.2 2.2-1.2 0-2.2-1-2.2-2.2 0-1.3 1-2.2 2.2-2.2 1.2 0 2.2 0.9 2.2 2.2z"/><path class="Y" d="m872.7 165.8c0 1.2-1 2.2-2.2 2.2-1.2 0-2.2-1-2.2-2.2 0-1.2 1-2.2 2.2-2.2 1.2 0 2.2 1 2.2 2.2z"/><path class="Z" d="m785.1 209c0 1.7-1.3 3-2.9 3-1.6 0-2.9-1.3-2.9-3 0-1.6 1.3-2.9 2.9-2.9 1.6 0 2.9 1.3 2.9 2.9z"/><path class="a0" d="m478.4 131.4c0 1.6-1.3 2.9-2.9 2.9-1.6 0-2.9-1.3-2.9-2.9 0-1.6 1.3-3 2.9-3 1.6 0 2.9 1.4 2.9 3z"/><path class="a1" d="m381.2 40.5c0 1.6-1.3 3-2.9 3-1.6 0-2.9-1.4-2.9-3 0-1.6 1.3-2.9 2.9-2.9 1.6 0 2.9 1.3 2.9 2.9z"/><path class="a2" d="m629 27.5c0 1.7-1.3 3-2.9 3-1.6 0-2.9-1.3-2.9-3 0-1.6 1.3-2.9 2.9-2.9 1.6 0 2.9 1.3 2.9 2.9z"/><path class="a3" d="m474.5 51.9c0 1.6-1.3 2.9-2.9 2.9-1.6 0-3-1.3-3-2.9 0-1.6 1.4-2.9 3-2.9 1.6 0 2.9 1.3 2.9 2.9z"/><path class="a4" d="m862.1 124.7c0 1.6-1.3 2.9-2.9 2.9-1.6 0-2.9-1.3-2.9-2.9 0-1.6 1.3-2.9 2.9-2.9 1.6 0 2.9 1.3 2.9 2.9z"/><path class="a5" d="m1049.7 170.3c0 1.6-1.3 2.9-2.9 2.9-1.6 0-3-1.3-3-2.9 0-1.6 1.4-2.9 3-2.9 1.6 0 2.9 1.3 2.9 2.9z"/><path class="a6" d="m973.3 100c0 1.6-1.3 2.9-2.9 2.9-1.6 0-2.9-1.3-2.9-2.9 0-1.6 1.3-3 2.9-3 1.6 0 2.9 1.4 2.9 3z"/><path class="a7" d="m959.4 16.1c0 1.7-1.3 3-2.9 3-1.6 0-3-1.3-3-3 0-1.6 1.4-2.9 3-2.9 1.6 0 2.9 1.3 2.9 2.9z"/><path class="a8" d="m907.2 179.6c0 1.6-1.3 2.9-2.9 2.9-1.6 0-2.9-1.3-2.9-2.9 0-1.6 1.3-2.9 2.9-2.9 1.6 0 2.9 1.3 2.9 2.9z"/><path class="a9" d="m837 229.6c0 1.2-1 2.2-2.2 2.2-1.2 0-2.2-1-2.2-2.2 0-1.2 1-2.2 2.2-2.2 1.2 0 2.2 1 2.2 2.2z"/><path class="aa" d="m345.6 72.6c0 0.9 0.7 1.6 1.6 1.6 0.9 0 1.7-0.7 1.7-1.6 0-0.9-0.8-1.7-1.7-1.7-0.9 0-1.6 0.8-1.6 1.7z"/><path class="aa" d="m374.2 243.9c0 0.9 0.7 1.6 1.6 1.6 0.9 0 1.6-0.7 1.6-1.6 0-0.9-0.7-1.7-1.6-1.7-0.9 0-1.6 0.8-1.6 1.7z"/><path class="aa" d="m259.9 189.6c0 0.9 0.8 1.7 1.7 1.7 0.9 0 1.6-0.8 1.6-1.7 0-0.9-0.7-1.6-1.6-1.6-0.9 0-1.7 0.7-1.7 1.6z"/><path class="ab" d="m531.9 185.4c0 1 0.7 1.7 1.6 1.7 0.9 0 1.7-0.7 1.7-1.7 0-0.9-0.8-1.6-1.7-1.6-0.9 0-1.6 0.7-1.6 1.6z"/><path class="ab" d="m671.3 229.6c0 0.9 0.7 1.6 1.6 1.6 0.9 0 1.7-0.7 1.7-1.6 0-0.9-0.8-1.7-1.7-1.7-0.9 0-1.6 0.8-1.6 1.7z"/><path class="ab" d="m748.5 185.4c0 1 0.7 1.7 1.6 1.7 0.9 0 1.7-0.7 1.7-1.7 0-0.9-0.8-1.6-1.7-1.6-0.9 0-1.6 0.7-1.6 1.6z"/><path class="ab" d="m1053 112c0 0.9 0.7 1.6 1.6 1.6 0.9 0 1.7-0.7 1.7-1.6 0-0.9-0.8-1.6-1.7-1.6-0.9 0-1.6 0.7-1.6 1.6z"/><path class="ab" d="m1004.2 174.9c0 0.9 0.7 1.7 1.6 1.7 0.9 0 1.7-0.8 1.7-1.7 0-0.9-0.8-1.6-1.7-1.6-0.9 0-1.6 0.7-1.6 1.6z"/><path class="aa" d="m471.7 198.7c0 0.9 0.7 1.6 1.6 1.6 0.9 0 1.6-0.7 1.6-1.6 0-0.9-0.7-1.7-1.6-1.7-0.9 0-1.6 0.8-1.6 1.7z"/><path class="aa" d="m555.7 188.2c0 0.9 0.7 1.7 1.6 1.7 0.9 0 1.7-0.8 1.7-1.7 0-0.9-0.8-1.6-1.7-1.6-0.9 0-1.6 0.7-1.6 1.6z"/><path class="aa" d="m295.3 67.1c0 0.9 0.8 1.6 1.7 1.6 0.9 0 1.6-0.7 1.6-1.6 0-0.9-0.7-1.6-1.6-1.6-0.9 0-1.7 0.7-1.7 1.6z"/><path class="aa" d="m470 283.4c0 0.9 0.7 1.7 1.7 1.7 0.9 0 1.6-0.8 1.6-1.7 0-0.9-0.7-1.6-1.6-1.6-1 0-1.7 0.7-1.7 1.6z"/><path class="aa" d="m43.2 280.1c0 0.9 0.7 1.7 1.6 1.7 0.9 0 1.7-0.8 1.7-1.7 0-0.9-0.8-1.6-1.7-1.6-0.9 0-1.6 0.7-1.6 1.6z"/><path class="aa" d="m154.3 182.5c0 0.9 0.8 1.7 1.7 1.7 0.9 0 1.6-0.8 1.6-1.7 0-0.9-0.7-1.6-1.6-1.6-0.9 0-1.7 0.7-1.7 1.6z"/><path class="aa" d="m146.5 146.8c0 0.9 0.8 1.7 1.7 1.7 0.9 0 1.6-0.8 1.6-1.7 0-0.9-0.7-1.6-1.6-1.6-0.9 0-1.7 0.7-1.7 1.6z"/><path class="aa" d="m7 145.4c0 0.9 0.7 1.6 1.6 1.6 0.9 0 1.7-0.7 1.7-1.6 0-0.9-0.8-1.6-1.7-1.6-0.9 0-1.6 0.7-1.6 1.6z"/><path class="ac" d="m538.8 76.6c0 0.9 0.7 1.7 1.7 1.7 0.9 0 1.6-0.8 1.6-1.7 0-0.9-0.7-1.6-1.6-1.6-1 0-1.7 0.7-1.7 1.6z"/><path class="ac" d="m701.2 96.2c0 0.9 0.8 1.7 1.7 1.7 0.9 0 1.6-0.8 1.6-1.7 0-0.9-0.7-1.6-1.6-1.6-0.9 0-1.7 0.7-1.7 1.6z"/><path class="ac" d="m331.6 113.4c0 0.9 0.8 1.6 1.7 1.6 0.9 0 1.6-0.7 1.6-1.6 0-0.9-0.7-1.7-1.6-1.7-0.9 0-1.7 0.8-1.7 1.7z"/><path class="ac" d="m405.6 13.2c0 0.9 0.8 1.7 1.7 1.7 0.9 0 1.6-0.8 1.6-1.7 0-0.9-0.7-1.6-1.6-1.6-0.9 0-1.7 0.7-1.7 1.6z"/><path class="ac" d="m984.5 91.6c0 0.9 0.7 1.6 1.6 1.6 0.9 0 1.6-0.7 1.6-1.6 0-0.9-0.7-1.7-1.6-1.7-0.9 0-1.6 0.8-1.6 1.7z"/><path class="ac" d="m772.2 151.8c0 0.9 0.7 1.6 1.6 1.6 0.9 0 1.7-0.7 1.7-1.6 0-0.9-0.8-1.6-1.7-1.6-0.9 0-1.6 0.7-1.6 1.6z"/><path class="ad" d="m996.4 111.1c0 1.2-1 2.2-2.2 2.2-1.3 0-2.2-1-2.2-2.2 0-1.2 0.9-2.2 2.2-2.2 1.2 0 2.2 1 2.2 2.2z"/><path class="ae" d="m864.4 75c0 1.2-1 2.2-2.3 2.2-1.2 0-2.2-1-2.2-2.2 0-1.2 1-2.2 2.2-2.2 1.3 0 2.3 1 2.3 2.2z"/><path class="af" d="m607 253.1c0 1.2-1 2.2-2.2 2.2-1.2 0-2.2-1-2.2-2.2 0-1.3 1-2.3 2.2-2.3 1.2 0 2.2 1 2.2 2.3z"/><path class="ag" d="m1082.8 174.5c0 1.2-1 2.2-2.2 2.2-1.2 0-2.2-1-2.2-2.2 0-1.2 1-2.2 2.2-2.2 1.2 0 2.2 1 2.2 2.2z"/><path class="ah" d="m1013 143.6c0 1.2-1 2.2-2.2 2.2-1.2 0-2.2-1-2.2-2.2 0-1.2 1-2.2 2.2-2.2 1.2 0 2.2 1 2.2 2.2z"/><path class="ai" d="m1160.8 148.6c0 1.2-1 2.2-2.2 2.2-1.2 0-2.2-1-2.2-2.2 0-1.2 1-2.2 2.2-2.2 1.2 0 2.2 1 2.2 2.2z"/><path class="aj" d="m1159.1 206.1c0 1.2-1 2.2-2.2 2.2-1.2 0-2.2-1-2.2-2.2 0-1.2 1-2.2 2.2-2.2 1.2 0 2.2 1 2.2 2.2z"/><path class="ak" d="m1045 42.4c0 1.2-1 2.2-2.2 2.2-1.2 0-2.2-1-2.2-2.2 0-1.2 1-2.2 2.2-2.2 1.2 0 2.2 1 2.2 2.2z"/><path class="al" d="m1173.4 145.8c0 1.2-1 2.2-2.2 2.2-1.2 0-2.2-1-2.2-2.2 0-1.2 1-2.2 2.2-2.2 1.2 0 2.2 1 2.2 2.2z"/><path class="am" d="m1173.4 34c0 1.2-1 2.2-2.2 2.2-1.2 0-2.2-1-2.2-2.2 0-1.2 1-2.2 2.2-2.2 1.2 0 2.2 1 2.2 2.2z"/><path class="an" d="m1131.9 31.5c0 1.2-1 2.2-2.2 2.2-1.3 0-2.3-1-2.3-2.2 0-1.2 1-2.2 2.3-2.2 1.2 0 2.2 1 2.2 2.2z"/><path class="ao" d="m1174.4 85.2c0 1.2-1 2.2-2.2 2.2-1.2 0-2.2-1-2.2-2.2 0-1.2 1-2.2 2.2-2.2 1.2 0 2.2 1 2.2 2.2z"/><path class="ap" d="m1082.4 103.1c0 1.2-1 2.2-2.2 2.2-1.2 0-2.2-1-2.2-2.2 0-1.2 1-2.2 2.2-2.2 1.2 0 2.2 1 2.2 2.2z"/><path class="aq" d="m977.7 212.5c0 1.2-1 2.2-2.2 2.2-1.2 0-2.2-1-2.2-2.2 0-1.2 1-2.2 2.2-2.2 1.2 0 2.2 1 2.2 2.2z"/><path class="ar" d="m874.9 29.3c0 1.2-1 2.2-2.2 2.2-1.2 0-2.2-1-2.2-2.2 0-1.2 1-2.2 2.2-2.2 1.2 0 2.2 1 2.2 2.2z"/><path class="as" d="m1147.1 179.5c0 1.7-1.3 3-2.9 3-1.6 0-2.9-1.3-2.9-3 0-1.6 1.3-2.9 2.9-2.9 1.6 0 2.9 1.3 2.9 2.9z"/><path class="ac" d="m1062 18.3c0 0.9 0.7 1.6 1.6 1.6 0.9 0 1.7-0.7 1.7-1.6 0-0.9-0.8-1.7-1.7-1.7-0.9 0-1.6 0.8-1.6 1.7z"/><path class="ac" d="m1123.5 110.2c0 0.9 0.8 1.7 1.7 1.7 0.9 0 1.6-0.8 1.6-1.7 0-0.9-0.7-1.6-1.6-1.6-0.9 0-1.7 0.7-1.7 1.6z"/><path class="at" d="m475.1 30.5c0 0-78 43.2-78.6 43.6-0.6 0.4-1.4 0.2-1.8-0.4-0.4-0.6-0.2-1.4 0.4-1.8 0.6-0.4 80-41.4 80-41.4z"/><path class="au" d="m654.3 89.6c0 0-55.9 36.9-56.5 37.3-0.6 0.4-1.4 0.2-1.8-0.4-0.4-0.6-0.2-1.4 0.4-1.8 0.6-0.4 57.9-35.1 57.9-35.1z"/><path class="av" d="m607 10.9c0 0-58.1 39.1-58.7 39.5-0.6 0.4-1.4 0.2-1.8-0.4-0.3-0.6-0.2-1.4 0.4-1.8 0.6-0.4 60.1-37.3 60.1-37.3z"/><path class="aw" d="m1070.2 74.3c0 0-80 56.2-80.6 56.6-0.6 0.4-1.4 0.2-1.8-0.4-0.4-0.6-0.3-1.4 0.4-1.8 0.6-0.4 82-54.4 82-54.4z"/><path class="ax" d="m665.9 98.8c0 0-101.7 70.6-102.3 71-0.6 0.4-1.4 0.3-1.8-0.4-0.4-0.6-0.2-1.4 0.4-1.8 0.6-0.3 103.7-68.8 103.7-68.8z"/></g></svg>